# xmcd CD database file
#
# Track frame offsets:
#	150
#	21080
#	38797
#	76748
#	83430
#	100355
#	128520
#	151455
#	161465
#	171400
#
# Disc length: 2537 seconds
#
# Revision: 3
# Processed by: cddbd v1.5.2PL0 Copyright (c) Steve Scherf et al.
# Submitted via: CDex 1.51
#
DISCID=6709e70a
DTITLE=Various Artist - American Folk Blues Festival 83 in Memoriam Muddy Waters
DYEAR=2008
DGENRE=Blues
TTITLE0=Louisiana Red and His Chicag Blues Friends - Louisiana Hot Sauce
TTITLE1=Jamess "Sparky" Rucker - Black Snake Moan
TTITLE2=Louisiana Red and His Chicago Blues Friends - Future Blues
TTITLE3=Larry Johnson - Confusion
TTITLE4=Larry Johnson and Nat Riddles - I got the Blues
TTITLE5=Lonnie Pitchford - Johnny stole an Apple
TTITLE6=Luoisiana Red and Carey Bell - Delta Fish Marke Blues
TTITLE7=Lovie Lee - Mine to ramble
TTITLE8=Lovie Lee  - Lovie Lee´s Boogie
TTITLE9=Queen Sylvia´s Blues Band - You Treat Me So Mean
EXTD=YEAR: 2008
EXTT0=
EXTT1=
EXTT2=
EXTT3=
EXTT4=
EXTT5=
EXTT6=
EXTT7=
EXTT8=
EXTT9=
PLAYORDER=
